<?xml version="1.0" encoding="UTF-8" standalone="no"?>
<!-- Created with Inkscape (http://www.inkscape.org/) -->
<svg
   xmlns:dc="http://purl.org/dc/elements/1.1/"
   xmlns:cc="http://web.resource.org/cc/"
   xmlns:rdf="http://www.w3.org/1999/02/22-rdf-syntax-ns#"
   xmlns:svg="http://www.w3.org/2000/svg"
   xmlns="http://www.w3.org/2000/svg"
   xmlns:sodipodi="http://sodipodi.sourceforge.net/DTD/sodipodi-0.dtd"
   xmlns:inkscape="http://www.inkscape.org/namespaces/inkscape"
   width="2000"
   height="1194"
   id="svg2"
   sodipodi:version="0.32"
   inkscape:version="0.45.1"
   version="1.0"
   sodipodi:docbase="I:\Backup\Desktop_xeon_2\Desktop\wiki"
   sodipodi:docname="latvia_blank_contour.svg"
   inkscape:output_extension="org.inkscape.output.svg.inkscape">
  <defs
     id="defs4" />
  <sodipodi:namedview
     id="base"
     pagecolor="#ffffff"
     bordercolor="#666666"
     borderopacity="1.0"
     gridtolerance="10000"
     guidetolerance="10"
     objecttolerance="10"
     inkscape:pageopacity="0.0"
     inkscape:pageshadow="2"
     inkscape:zoom="0.35"
     inkscape:cx="942.80433"
     inkscape:cy="579.09292"
     inkscape:document-units="px"
     inkscape:current-layer="layer3"
     inkscape:window-width="1152"
     inkscape:window-height="767"
     inkscape:window-x="-4"
     inkscape:window-y="-4" />
  <metadata
     id="metadata7">
    <rdf:RDF>
      <cc:Work
         rdf:about="">
        <dc:format>image/svg+xml</dc:format>
        <dc:type
           rdf:resource="http://purl.org/dc/dcmitype/StillImage" />
        <dc:title>Latvia blank contour map</dc:title>
        <dc:date>2007.06.04</dc:date>
        <dc:creator>
          <cc:Agent>
            <dc:title>Mothmolevna</dc:title>
          </cc:Agent>
        </dc:creator>
        <cc:license
           rdf:resource="http://creativecommons.org/licenses/by-sa/2.5/" />
      </cc:Work>
      <cc:License
         rdf:about="http://creativecommons.org/licenses/by-sa/2.5/">
        <cc:permits
           rdf:resource="http://web.resource.org/cc/Reproduction" />
        <cc:permits
           rdf:resource="http://web.resource.org/cc/Distribution" />
        <cc:requires
           rdf:resource="http://web.resource.org/cc/Notice" />
        <cc:requires
           rdf:resource="http://web.resource.org/cc/Attribution" />
        <cc:permits
           rdf:resource="http://web.resource.org/cc/DerivativeWorks" />
        <cc:requires
           rdf:resource="http://web.resource.org/cc/ShareAlike" />
      </cc:License>
    </rdf:RDF>
  </metadata>
  <g
     inkscape:groupmode="layer"
     id="layer3"
     style="display:inline">
    <path
       style="fill:none;fill-rule:evenodd;stroke:#000000;stroke-width:6.0999999;stroke-linecap:butt;stroke-linejoin:round;stroke-miterlimit:4;stroke-dasharray:none;stroke-opacity:1"
       d="M 489.40622,175.16925 L 483.10546,224.25355 C 483.10546,224.25355 486.70412,237.70121 496.48997,254.55813 C 506.34009,271.52576 548.26029,298.49977 548.26029,298.49977 L 567.5766,330.36127 L 588.08947,343.83895 L 598.05146,355.1401 L 621.24382,364.66476 L 628.51136,400.20418 L 632.74328,439.21735 L 647.8617,471.36225 L 645.49176,501.21073 L 683.3682,525.27901 L 714.71356,531.22264 L 733.06962,556.71104 L 754.64523,563.69545 L 790.94944,563.66481 L 849.26781,534.87546 L 854.44112,512.02448 L 877.35554,504.56628 L 884.72031,499.69344 C 915.42028,478.87958 936.73471,451.01772 955.90017,422.56996 L 946.97631,309.1318 L 945.29357,244.35943 C 938.65927,243.92331 940.30546,228.39507 938.31442,220.36088 C 935.37813,212.55231 929.7776,204.65804 924.97323,196.38245 L 922.26927,147.48196 L 931.60049,127.15636 L 959.64492,127.78399 C 966.53676,113.62037 974.33271,104.65538 983.12921,101.4435 L 997.02056,85.862657 C 1008.3893,89.753395 1021.2425,89.376499 1036.4165,82.327123 L 1044.1416,63.755471 L 1065.7908,73.254391 L 1078.0883,62.047027 L 1102.7855,54.190785 L 1122.865,33.491139 L 1149.0179,26.83001 L 1171.4314,65.835754 L 1182.3909,53.697201 L 1175.0742,27.501594 L 1180.7563,21.947304 L 1193.363,34.951225 C 1198.5678,42.195022 1206.4309,45.572306 1216.3936,46.630931 L 1226.3252,66.164683 L 1255.1668,77.482923 L 1254.8416,89.692761 L 1265.3947,102.70874 L 1303.4131,99.495657 L 1315.6931,128.70748 C 1341.8936,129.45266 1378.0475,128.1574 1377.847,139.30779 C 1377.7332,145.63989 1373.537,161.26696 1373.537,161.26696 L 1412.6257,187.7449 L 1445.5283,247.48706 L 1489.3484,265.32833 L 1511.0714,288.46429 L 1518.8036,281.10451 L 1529.9957,286.27362 L 1530.5531,274.74228 L 1561.1126,255.46122 L 1569.3612,261.96019 L 1589.1072,250.78571 L 1592.2613,238.85373 L 1602.3215,229.53571 L 1609.5365,236.10182 L 1627.7224,234.91464 L 1650.8929,264.35714 L 1692.4119,270.89681 L 1722.6786,279.89286 L 1730.0064,274.9485 L 1773.5079,274.08551 L 1776.1222,297.55894 L 1771.7857,316.32142 L 1808.042,338.89913 L 1827.1429,363.28571 L 1861.4286,379.53571 L 1855.2385,453.8385 L 1819.4643,473.64286 L 1839.7899,495.5757 L 1832.2074,524.83376 L 1837.8571,533.46428 L 1824.9796,571.66025 L 1814.8063,579.85152 L 1812.8571,605.42857 C 1812.8571,605.42857 1837.7638,587.34407 1858.0316,589.39764 C 1868.3611,590.44424 1875.1643,597.24333 1881.6291,602.78393 C 1887.8492,608.11476 1893.9285,612.21428 1893.9285,612.21428 L 1880.0426,635.44315 L 1878.9286,654.71429 L 1894.9707,656.9998 L 1913.2741,675.773 L 1921.25,722.21429 L 1951.6226,738.4554 L 1945.7143,764.89286 L 1968.1368,791.11024 L 1967.65,829.78215 L 1985,880.25 C 1976.0688,890.78156 1973.9356,899.56671 1977.3638,908.19682 L 1968.6942,931.67967 L 1956.5528,924.32111 L 1941.4286,942.57143 L 1905,958.28571 L 1898.6017,979.28546 L 1871.6099,997.64471 L 1871.4285,1014.3571 L 1833.0357,1049.3571 L 1832.8365,1092.6572 L 1822.3145,1115.7615 L 1765.8643,1110.2088 L 1753.3023,1103.9851 L 1737.1428,1118.6429 L 1698.6219,1093.2736 L 1658.0357,1098.6429 L 1632.0164,1127.1177 L 1626.7857,1161.8571 C 1614.7549,1162.4567 1606.2144,1168.0079 1595.1061,1173.2199 L 1566.25,1165.7857 L 1555.1734,1179.6012 C 1541.1419,1178.545 1526.4671,1176.6265 1511.9627,1167.0594 L 1484.2857,1161.5 L 1456.7204,1132.3808 L 1441.0714,1092.2143 L 1415.8998,1078.9927 L 1397.8012,1051.1283 L 1357.2417,1034.06 C 1346.6691,1020.9222 1334.672,1006.7566 1321.216,993.67004 L 1303.2401,985.71975 L 1297.6786,958.64286 L 1276.6238,958.76865 L 1262.5,947.03571 C 1253.6808,954.34309 1242.8029,954.10084 1230.1807,948.45231 C 1218.3995,957.10302 1196.3322,946.14113 1179.8542,940.07555 L 1158.3928,944.17857 L 1134.7922,928.60776 C 1129.0845,912.68052 1131.2898,893.76397 1112.6786,891.85714 L 1090.1786,815.25 L 1077.7766,816.82495 L 1077.363,830.96696 L 1068.469,831.16033 C 1063.0278,832.6125 1060.4555,837.42889 1059.7116,841.69938 L 1038.9134,841.88553 C 1035.029,850.45649 1027.7188,854.07917 1019.587,856.51505 L 1017.327,864.72236 C 1016.1625,868.44805 1013.5214,870.13061 1010,869.17857 L 987.5565,896.219 L 969.82143,902.21429 L 933.03382,882.34417 L 886.25,905.25 L 866.599,898.0758 L 848.96076,874.08276 L 798.21429,864 L 774.97399,868.47775 L 773.8855,859.5987 L 734.6053,854.51394 L 727.14286,868.82142 L 687.09206,860.76017 L 657.03288,845.3757 L 622.14285,850.96429 L 625.32272,859.73122 L 604.46429,881.5 L 586.35442,867.40044 L 574.10714,832.21428 L 558.50668,825.13764 L 532.32143,845.42858 L 509.28394,846.84935 L 493.27844,854.77127 L 474.74117,838.97224 L 445.53571,829.35714 L 377.91533,830.37325 L 355,817.21429 L 324.40221,817.91388 L 294.64286,836.5 L 262.2288,844.39275 L 254.66629,852.47445 L 246.78571,852.21428 L 230.57974,865.54379 L 196.04482,860.50635 L 193.21428,870.42857 L 153.57143,899 L 133.15627,899.08832 C 122.34426,910.57163 108.67745,923.09987 100.89286,933.28572 L 92.142858,971.32143 L 48.214286,969 C 46.347899,917.26443 36.469121,928.37798 30.357143,910.60714 C 28.823344,904.26149 35.42366,877.59977 35.543253,870.05959 C 35.684782,861.13638 31.964286,824.89286 31.964286,824.89286 L 41.320981,805.31873 L 41.715458,767.62516 L 50.978371,771.3471 L 51.543219,813.6198 L 61.558594,816.10198 L 62.142857,767.92857 L 45.357143,736.85715 L 65.032406,659.30726 L 65.714286,604.53572 C 68.845754,602.43065 75.527053,600.28298 79.165708,597.14367 C 81.451123,595.17188 79.448091,592.58774 81.598931,591.20411 C 84.637382,589.24949 88.160589,590.16767 90.964384,588.28723 C 102.63355,580.46098 112.15233,573.44206 117.38749,568.83282 C 127.35486,565.53715 124.13764,555.52962 131.08414,549.68159 L 147.14286,540.78571 L 165.69108,506.28926 L 163.76836,456.37409 L 169.64285,442.03571 L 171.25,390.60714 L 186.3229,376.60876 C 195.76441,364.75198 191.76806,353.81057 202.86172,341.75271 L 261.07143,251.5 L 280.88891,251.30601 L 290.4813,248.30522 L 331.15336,247.26916 L 353.46283,229.27673 L 363.57275,228.82558 L 372.10404,219.10776 L 383.39286,218.46429 C 383.95407,218.1917 392.12744,211.175 401.76197,207.1547 C 412.68095,202.59842 423.89572,201.81864 426.67873,200.54502 C 437.74505,195.48064 451.96429,184.00001 458.5652,181.22354 L 489.40622,175.16925 z "
       id="path2228"
       sodipodi:nodetypes="cczcccccccccccccccccccccccccccccccccccccccccccccccscccccccccccccccccccccccccccccccccssccccccccccccccccccccccccccccccccccccccccccccccccccccccccccccccccccccccccccccccccccccccccccccccccccsccccccccccssscccccccccccccccccsscc" />
  </g>
</svg>
